<svg id="Hint_Button_Sound" data-name="Hint Button Sound" xmlns="http://www.w3.org/2000/svg" width="27.672" height="25.501" viewBox="0 0 27.672 25.501">
  <defs>
    <style>
      .cls-1 {
        fill: #ef1814;
      }
    </style>
  </defs>
  <g id="hint">
    <path id="路径_343" data-name="路径 343" class="cls-1" d="M128.629,75.67v9.807h6.042l12.084,7.847v-25.5l-12.084,7.847Zm2.014,7.847V77.632h4.029v5.884Zm14.1,6.141-8.058-5.229V76.72l8.058-5.231Zm7.049-9.085a5.856,5.856,0,0,0-3.021-5.1v2.5a3.847,3.847,0,0,1,0,5.19v2.5A5.856,5.856,0,0,0,151.79,80.574Z" transform="translate(-128.629 -67.825)"/>
    <path id="路径_344" data-name="路径 344" class="cls-1" d="M686.218,164.22v1.969c3.41,1.133,5.643,3.855,5.643,6.88s-2.232,5.746-5.643,6.88v1.969c4.576-1.182,7.9-4.7,7.9-8.85S690.794,165.4,686.218,164.22Z" transform="translate(-666.441 -160.32)"/>
  </g>
</svg>
