<?xml version="1.0" standalone="no"?><!DOCTYPE svg PUBLIC "-//W3C//DTD SVG 1.1//EN" "http://www.w3.org/Graphics/SVG/1.1/DTD/svg11.dtd"><svg class="icon" width="200px" height="200.00px" viewBox="0 0 1024 1024" version="1.1" xmlns="http://www.w3.org/2000/svg"><path d="M654.3 328.2H804V178.4c0-14.2 11.4-25.6 25.6-25.6 14.2 0 25.6 11.4 25.6 25.6l0.1 175.4c0 6.8-2.7 13.3-7.5 18-4.8 4.8-11.3 7.5-18 7.5H654.3c-14.2 0-25.6-11.4-25.6-25.6 0-7.1 2.9-13.4 7.5-18 4.7-4.6 11.1-7.5 18.1-7.5z" fill="#EF1814" /><path d="M366.8 167.7c46.1-19.6 95.2-29.5 145.7-29.5 69.8-0.1 138 19.3 197 55.9 57.4 35.6 104.2 86 135.3 145.8 6.4 12.5 1.7 27.9-10.9 34.4-12.5 6.4-27.9 1.7-34.4-10.9-26.9-51.7-67.3-95.3-116.9-126-51-31.6-109.7-48.3-170-48.3-86.3 0-167.5 33.6-228.6 94.7S189.3 426 189.3 512.4c0 86.3 33.6 167.5 94.7 228.6s142.2 94.7 228.6 94.7c60.2 0 119.1-16.7 170-48.3 49.5-30.8 90-74.3 116.9-126 6.5-12.6 21.9-17.4 34.4-10.9s17.4 21.9 10.9 34.4c-31.1 59.9-77.9 110.2-135.3 145.8-59.1 36.6-127.3 56-197 56-50.5 0-99.6-9.9-145.7-29.5-44.6-18.9-84.6-45.9-119-80.3-34.4-34.4-61.4-74.4-80.3-119C147.9 612 138 563 138 512.5s10-99.5 29.5-145.7c18.9-44.6 45.9-84.6 80.3-119s74.3-61.4 119-80.1z" fill="#EF1814" /></svg>