<?xml version="1.0" encoding="utf-8"?>
<!-- Generator: Adobe Illustrator 23.0.6, SVG Export Plug-In . SVG Version: 6.00 Build 0)  -->
<svg version="1.1" id="图层_1" xmlns="http://www.w3.org/2000/svg" xmlns:xlink="http://www.w3.org/1999/xlink" x="0px" y="0px"
	 viewBox="0 0 200 200" style="enable-background:new 0 0 200 200;" xml:space="preserve">
<style type="text/css">
	.st0{fill:#EF1814;}
	.st1{fill:none;}
</style>
<path class="st0" d="M67.3,143.3c-18.7-10.1-30.5-29.7-30.8-51c0-32.9,28.4-59.5,63.5-59.5s63.5,26.6,63.5,59.5
	c-0.3,21.3-12,40.8-30.8,51c-1,5.3-3.5,10.2-7.1,14.2H74.4C70.8,153.5,68.4,148.6,67.3,143.3L67.3,143.3z M145.3,98
	c0-25-20.3-45.3-45.3-45.3c-4,0-6,1.9-6,5.7c0,0.9,2,2.8,6,2.8c20.2,0.2,36.4,16.7,36.3,36.8c0,0.9,2,2.8,6,2.8
	C143.7,100.4,144.9,99.4,145.3,98z M72.8,171.6c0.1-3.2,2.8-5.7,6-5.6h42.3c3.1-0.2,5.8,2.2,6,5.3s-2.2,5.8-5.3,6
	c-0.2,0-0.5,0-0.7,0H78.8C75.6,177.4,72.9,174.9,72.8,171.6L72.8,171.6z M124.4,185.8c-7.7,13.5-24.8,18.2-38.2,10.5
	c-4.4-2.5-8-6.1-10.5-10.5H124.4z"/>
<path class="st1" d="M99.6,29.1h1c3.1,0,5.7-2.5,5.7-5.7V7.6c0-3.1-2.5-5.7-5.7-5.7h-1c-3.1,0-5.7,2.5-5.7,5.7v15.8
	C93.9,26.5,96.5,29.1,99.6,29.1z"/>
<path class="st1" d="M51.6,46.8l0.7-0.7c1.1-1.1,1.7-2.5,1.7-4s-0.6-2.9-1.7-4L41.1,26.9c-1.1-1.1-2.5-1.7-4-1.7s-2.9,0.6-4,1.7
	l-0.7,0.7c-1.1,1.1-1.7,2.5-1.7,4c0,1.5,0.6,2.9,1.7,4l11.2,11.2c1.1,1.1,2.5,1.7,4,1.7S50.5,47.9,51.6,46.8z"/>
<path class="st1" d="M26.9,76.5H11.1c-3.1,0-5.7,2.5-5.7,5.7v1c0,3.1,2.5,5.7,5.7,5.7h15.8c3.1,0,5.7-2.5,5.7-5.7v-1
	C32.6,79,30.1,76.5,26.9,76.5z"/>
<path class="st1" d="M189.9,75.9h-15.8c-3.1,0-5.7,2.5-5.7,5.7v1c0,3.1,2.5,5.7,5.7,5.7h15.8c3.1,0,5.7-2.5,5.7-5.7v-1
	C195.6,78.5,193.1,75.9,189.9,75.9z"/>
<path class="st1" d="M167.8,27.7l-0.7-0.7c-1.1-1.1-2.5-1.7-4-1.7s-2.9,0.6-4,1.7l-11.2,11.2c-1.1,1.1-1.7,2.5-1.7,4s0.6,2.9,1.7,4
	l0.7,0.7c1.1,1.1,2.5,1.7,4,1.7s2.9-0.6,4-1.7l11.2-11.2C170,33.5,170,29.9,167.8,27.7L167.8,27.7z"/>
</svg>
